<?xml version="1.0" encoding="UTF-8"?>
<svg width="48" height="48" viewBox="0 0 48 48" fill="none" xmlns="http://www.w3.org/2000/svg">
    <!-- Background Circle -->
    <circle cx="24" cy="24" r="22" fill="#6C63FF"/>
    
    <!-- Dress Silhouette -->
    <path d="M24 8L32 16V36C32 38.2091 30.2091 40 28 40H20C17.7909 40 16 38.2091 16 36V16L24 8Z" 
          fill="white" stroke="white" stroke-width="1"/>
    
    <!-- Circuit Pattern -->
    <path d="M20 20H28M24 20V28" stroke="#6C63FF" stroke-width="1.5"/>
    <circle cx="20" cy="20" r="1.5" fill="#6C63FF"/>
    <circle cx="28" cy="20" r="1.5" fill="#6C63FF"/>
    <circle cx="24" cy="28" r="1.5" fill="#6C63FF"/>
    
    <!-- Additional Circuit Elements -->
    <path d="M20 32H28" stroke="#6C63FF" stroke-width="1.5"/>
    <circle cx="20" cy="32" r="1.5" fill="#6C63FF"/>
    <circle cx="28" cy="32" r="1.5" fill="#6C63FF"/>
    
    <!-- Sparkle Elements -->
    <path d="M36 12L38 14M34 8L35 11M39 9L37 11" stroke="white" stroke-width="1" stroke-linecap="round"/>
</svg>